<?xml version="1.0" encoding="UTF-8" standalone="no"?>
<svg
   xmlns:dc="http://purl.org/dc/elements/1.1/"
   xmlns:cc="http://creativecommons.org/ns#"
   xmlns:rdf="http://www.w3.org/1999/02/22-rdf-syntax-ns#"
   xmlns:svg="http://www.w3.org/2000/svg"
   xmlns="http://www.w3.org/2000/svg"
   xmlns:sodipodi="http://sodipodi.sourceforge.net/DTD/sodipodi-0.dtd"
   xmlns:inkscape="http://www.inkscape.org/namespaces/inkscape"
   version="1.0"
   width="533.62561mm"
   height="400.73264mm"
   id="svg55"
   sodipodi:docname="Flag of Great Britain 1707 pro-England variant.svg"
   inkscape:version="0.92.0 r15299">
  <metadata
     id="metadata59">
    <rdf:RDF>
      <cc:Work
         rdf:about="">
        <dc:format>image/svg+xml</dc:format>
        <dc:type
           rdf:resource="http://purl.org/dc/dcmitype/StillImage" />
        <dc:title></dc:title>
      </cc:Work>
    </rdf:RDF>
  </metadata>
  <sodipodi:namedview
     pagecolor="#ffffff"
     bordercolor="#666666"
     borderopacity="1"
     objecttolerance="10"
     gridtolerance="10"
     guidetolerance="10"
     inkscape:pageopacity="0"
     inkscape:pageshadow="2"
     inkscape:window-width="1280"
     inkscape:window-height="753"
     id="namedview57"
     showgrid="false"
     fit-margin-top="0"
     fit-margin-left="0"
     fit-margin-right="0"
     fit-margin-bottom="0"
     inkscape:zoom="0.66485358"
     inkscape:cx="-239.74686"
     inkscape:cy="1488.538"
     inkscape:window-x="-4"
     inkscape:window-y="-4"
     inkscape:window-maximized="1"
     inkscape:current-layer="svg55" />
  <defs
     id="defs3">
    <pattern
       id="EMFhbasepattern"
       patternUnits="userSpaceOnUse"
       width="6"
       height="6"
       x="0"
       y="0" />
  </defs>
  <rect
     style="opacity:1;fill:#ffffff;fill-opacity:1;stroke:none;stroke-width:33.00219345;stroke-linecap:square;stroke-linejoin:miter;stroke-miterlimit:4;stroke-dasharray:none;stroke-dashoffset:0;stroke-opacity:1;paint-order:normal"
     id="rect40"
     width="2014.6"
     height="1513.0265"
     x="0"
     y="0.48246071" />
  <path
     style="fill:none;stroke:#000000;stroke-width:0.1;stroke-linecap:round;stroke-linejoin:round;stroke-miterlimit:4;stroke-dasharray:none;stroke-opacity:1"
     d="M 907.13274,655.27326 V 0.40832895"
     id="path7"
     inkscape:connector-curvature="0" />
  <path
     style="fill:none;stroke:#000000;stroke-width:0.1;stroke-linecap:round;stroke-linejoin:round;stroke-miterlimit:4;stroke-dasharray:none;stroke-opacity:1"
     d="M 1108.527,0.40832895 V 655.27326"
     id="path9"
     inkscape:connector-curvature="0" />
  <path
     style="fill:none;stroke:#000000;stroke-width:0.1;stroke-linecap:round;stroke-linejoin:round;stroke-miterlimit:4;stroke-dasharray:none;stroke-opacity:1"
     d="m 1108.527,655.27326 h 908.275"
     id="path11"
     inkscape:connector-curvature="0" />
  <path
     style="fill:none;stroke:#000000;stroke-width:0.1;stroke-linecap:round;stroke-linejoin:round;stroke-miterlimit:4;stroke-dasharray:none;stroke-opacity:1"
     d="M 2016.802,856.66757 H 1108.527"
     id="path13"
     inkscape:connector-curvature="0" />
  <path
     style="fill:none;stroke:#000000;stroke-width:0.1;stroke-linecap:round;stroke-linejoin:round;stroke-miterlimit:4;stroke-dasharray:none;stroke-opacity:1"
     d="M 1108.527,856.66757 V 1512.8662"
     id="path15"
     inkscape:connector-curvature="0" />
  <path
     style="fill:none;stroke:#000000;stroke-width:0.1;stroke-linecap:round;stroke-linejoin:round;stroke-miterlimit:4;stroke-dasharray:none;stroke-opacity:1"
     d="M 907.13274,1512.8662 V 856.66757"
     id="path17"
     inkscape:connector-curvature="0" />
  <path
     style="fill:none;stroke:#000000;stroke-width:0.1;stroke-linecap:round;stroke-linejoin:round;stroke-miterlimit:4;stroke-dasharray:none;stroke-opacity:1"
     d="M 907.13274,856.66757 H 0.19148899"
     id="path19"
     inkscape:connector-curvature="0" />
  <path
     style="fill:none;stroke:#000000;stroke-width:0.1;stroke-linecap:round;stroke-linejoin:round;stroke-miterlimit:4;stroke-dasharray:none;stroke-opacity:1"
     d="M 0.19148899,655.27326 H 907.13274"
     id="path21"
     inkscape:connector-curvature="0" />
  <path
     style="fill:none;stroke:#000000;stroke-width:0.1;stroke-linecap:round;stroke-linejoin:round;stroke-miterlimit:4;stroke-dasharray:none;stroke-opacity:1"
     d="M 807.10246,535.23692 V 0.40832895"
     id="path23"
     inkscape:connector-curvature="0" />
  <path
     style="fill:none;stroke:#000000;stroke-width:0.1;stroke-linecap:round;stroke-linejoin:round;stroke-miterlimit:4;stroke-dasharray:none;stroke-opacity:1"
     d="M 647.054,555.24298 H 0.19148899"
     id="path25"
     inkscape:connector-curvature="0" />
  <path
     style="fill:none;stroke:#000000;stroke-width:0.1;stroke-linecap:round;stroke-linejoin:round;stroke-miterlimit:4;stroke-dasharray:none;stroke-opacity:1"
     d="M 0.19148899,958.03159 H 647.054"
     id="path27"
     inkscape:connector-curvature="0" />
  <path
     style="fill:none;stroke:#000000;stroke-width:0.1;stroke-linecap:round;stroke-linejoin:round;stroke-miterlimit:4;stroke-dasharray:none;stroke-opacity:1"
     d="M 807.10246,976.70391 V 1512.8662"
     id="path29"
     inkscape:connector-curvature="0" />
  <path
     style="fill:none;stroke:#000000;stroke-width:0.1;stroke-linecap:round;stroke-linejoin:round;stroke-miterlimit:4;stroke-dasharray:none;stroke-opacity:1"
     d="M 1209.8911,1512.8662 V 976.70391"
     id="path31"
     inkscape:connector-curvature="0" />
  <path
     style="fill:none;stroke:#000000;stroke-width:0.1;stroke-linecap:round;stroke-linejoin:round;stroke-miterlimit:4;stroke-dasharray:none;stroke-opacity:1"
     d="M 1369.9395,958.03159 H 2016.802"
     id="path33"
     inkscape:connector-curvature="0" />
  <path
     style="fill:none;stroke:#000000;stroke-width:0.1;stroke-linecap:round;stroke-linejoin:round;stroke-miterlimit:4;stroke-dasharray:none;stroke-opacity:1"
     d="M 2016.802,555.24298 H 1369.9395"
     id="path35"
     inkscape:connector-curvature="0" />
  <path
     style="fill:none;stroke:#000000;stroke-width:0.1;stroke-linecap:round;stroke-linejoin:round;stroke-miterlimit:4;stroke-dasharray:none;stroke-opacity:1"
     d="M 1209.8911,535.23692 V 0.40832895"
     id="path37"
     inkscape:connector-curvature="0" />
  <path
     style="fill:none;stroke:#000000;stroke-width:0.1;stroke-linecap:round;stroke-linejoin:round;stroke-miterlimit:4;stroke-dasharray:none;stroke-opacity:1"
     d="M 1209.8911,535.23692 1923.4404,0.40832895"
     id="path39"
     inkscape:connector-curvature="0" />
  <path
     style="fill:none;stroke:#000000;stroke-width:0.1;stroke-linecap:round;stroke-linejoin:round;stroke-miterlimit:4;stroke-dasharray:none;stroke-opacity:1"
     d="M 2016.802,69.762659 1369.9395,555.24298"
     id="path41"
     inkscape:connector-curvature="0" />
  <path
     style="fill:none;stroke:#000000;stroke-width:0.1;stroke-linecap:round;stroke-linejoin:round;stroke-miterlimit:4;stroke-dasharray:none;stroke-opacity:1"
     d="M 1369.9395,958.03159 2016.802,1443.5118"
     id="path43"
     inkscape:connector-curvature="0" />
  <path
     style="fill:none;stroke:#000000;stroke-width:0.1;stroke-linecap:round;stroke-linejoin:round;stroke-miterlimit:4;stroke-dasharray:none;stroke-opacity:1"
     d="M 1923.4404,1512.8662 1209.8911,976.70391"
     id="path45"
     inkscape:connector-curvature="0" />
  <path
     style="fill:none;stroke:#000000;stroke-width:0.1;stroke-linecap:round;stroke-linejoin:round;stroke-miterlimit:4;stroke-dasharray:none;stroke-opacity:1"
     d="M 807.10246,976.70391 92.219351,1512.8662"
     id="path47"
     inkscape:connector-curvature="0" />
  <path
     style="fill:none;stroke:#000000;stroke-width:0.1;stroke-linecap:round;stroke-linejoin:round;stroke-miterlimit:4;stroke-dasharray:none;stroke-opacity:1"
     d="M 0.19148899,1443.5118 647.054,958.03159"
     id="path49"
     inkscape:connector-curvature="0" />
  <path
     style="fill:none;stroke:#000000;stroke-width:0.1;stroke-linecap:round;stroke-linejoin:round;stroke-miterlimit:4;stroke-dasharray:none;stroke-opacity:1"
     d="M 647.054,555.24298 0.19148899,69.762659"
     id="path51"
     inkscape:connector-curvature="0" />
  <path
     style="fill:none;stroke:#000000;stroke-width:0.1;stroke-linecap:round;stroke-linejoin:round;stroke-miterlimit:4;stroke-dasharray:none;stroke-opacity:1"
     d="M 92.219351,0.40832895 807.10246,535.23692"
     id="path53"
     inkscape:connector-curvature="0" />
  <path
     style="opacity:1;fill:#00247d;fill-opacity:1;stroke:#000000;stroke-width:0.10458354;stroke-linecap:square;stroke-linejoin:miter;stroke-miterlimit:4;stroke-dasharray:none;stroke-dashoffset:0;stroke-opacity:1;paint-order:normal"
     d="M 1210.7866,267.06682 V 0.90171935 h 355.2852 c 301.2396,0 355.0523,0.21841985 353.7538,1.43584845 -2.224,2.0852098 -708.0097,530.8943522 -708.5688,530.8943522 -0.2586,0 -0.4702,-119.77429 -0.4702,-266.1651 z"
     id="path884"
     inkscape:connector-curvature="0" />
  <path
     style="opacity:1;fill:#00247d;fill-opacity:1;stroke:#000000;stroke-width:0.10458354;stroke-linecap:square;stroke-linejoin:miter;stroke-miterlimit:4;stroke-dasharray:none;stroke-dashoffset:0;stroke-opacity:1;paint-order:normal"
     d="m 1372.9284,553.77412 c 0.8423,-0.78119 145.8959,-109.73022 322.3414,-242.10896 l 320.81,-240.688609 V 313.08551 555.19446 h -322.3414 c -271.6113,0 -322.1004,-0.22353 -320.81,-1.42034 z"
     id="path886"
     inkscape:connector-curvature="0" />
  <path
     style="opacity:1;fill:#00247d;fill-opacity:1;stroke:#000000;stroke-width:0.10458354;stroke-linecap:square;stroke-linejoin:miter;stroke-miterlimit:4;stroke-dasharray:none;stroke-dashoffset:0;stroke-opacity:1;paint-order:normal"
     d="m 1693.8873,1200.4659 -321.6697,-241.42838 321.5808,-0.26314 c 176.8695,-0.14473 321.7395,-0.1045 321.9334,0.0894 0.1939,0.19389 0.2338,108.95502 0.089,241.69152 l -0.2637,241.3391 z"
     id="path888"
     inkscape:connector-curvature="0" />
  <path
     style="opacity:1;fill:#00247d;fill-opacity:1;stroke:#000000;stroke-width:0.10458354;stroke-linecap:square;stroke-linejoin:miter;stroke-miterlimit:4;stroke-dasharray:none;stroke-dashoffset:0;stroke-opacity:1;paint-order:normal"
     d="m 1210.9102,1245.4683 c 0,-213.7139 0.2622,-267.13588 1.3073,-266.32661 0.719,0.55678 46.958,35.29391 102.7533,77.19381 55.7953,41.8998 137.2136,103.0654 180.9295,135.9234 43.7159,32.8581 129.8405,97.5692 191.3879,143.8023 129.0768,96.96 234.0727,175.8679 234.7029,176.3871 0.2396,0.1974 -159.6555,0.359 -355.3226,0.359 h -355.7583 z"
     id="path890"
     inkscape:connector-curvature="0" />
  <path
     style="opacity:1;fill:#00247d;fill-opacity:1;stroke:#000000;stroke-width:0.10458354;stroke-linecap:square;stroke-linejoin:miter;stroke-miterlimit:4;stroke-dasharray:none;stroke-dashoffset:0;stroke-opacity:1;paint-order:normal"
     d="m 449.24409,1245.5963 c 195.95388,-146.966 356.51556,-267.21083 356.80373,-267.21083 0.28816,0 0.52394,120.24483 0.52394,267.21083 v 267.211 H 449.76804 92.964312 Z"
     id="path892"
     inkscape:connector-curvature="0" />
  <path
     style="opacity:1;fill:#00247d;fill-opacity:1;stroke:#000000;stroke-width:0.10458354;stroke-linecap:square;stroke-linejoin:miter;stroke-miterlimit:4;stroke-dasharray:none;stroke-dashoffset:0;stroke-opacity:1;paint-order:normal"
     d="M 0.23269149,1200.4006 V 958.81267 H 322.55915 c 180.52254,0 321.88937,0.39655 321.33292,0.90139 -2.44181,2.21533 -642.5723237,482.27444 -643.08453721,482.27444 -0.3161628,0 -0.5748413,-108.7145 -0.5748413,-241.5879 z"
     id="path894"
     inkscape:connector-curvature="0" />
  <path
     style="opacity:1;fill:#00247d;fill-opacity:1;stroke:#000000;stroke-width:0.10458354;stroke-linecap:square;stroke-linejoin:miter;stroke-miterlimit:4;stroke-dasharray:none;stroke-dashoffset:0;stroke-opacity:1;paint-order:normal"
     d="m 0.23269149,312.71231 c 0,-132.87338 0.2178017,-241.587975 0.4840038,-241.587975 0.266202,0 27.91547471,20.612607 61.44282771,45.805805 33.527353,25.19318 165.673097,124.36486 293.657197,220.3815 127.9841,96.01665 245.34196,184.11863 260.79523,195.78218 l 28.09687,21.20646 H 322.47076 0.23269149 Z"
     id="path896"
     inkscape:connector-curvature="0" />
  <path
     style="opacity:1;fill:#00247d;fill-opacity:1;stroke:#000000;stroke-width:0.10458354;stroke-linecap:square;stroke-linejoin:miter;stroke-miterlimit:4;stroke-dasharray:none;stroke-dashoffset:0;stroke-opacity:1;paint-order:normal"
     d="M 763.69251,502.19548 C 740.97174,485.12379 684.26131,442.63898 637.66935,407.78479 591.07738,372.9306 508.71785,311.31225 454.64816,270.85512 400.57847,230.398 336.10272,182.16597 311.36872,163.67283 286.63471,145.1797 227.60208,101.02495 180.18511,65.551158 L 93.972415,1.0533665 H 450.27209 806.57176 V 267.21847 c 0,146.3908 -0.35297,266.13165 -0.78438,266.09078 -0.43141,-0.0409 -19.3741,-14.04206 -42.09487,-31.11377 z"
     id="path898"
     inkscape:connector-curvature="0" />
  <path
     style="opacity:1;fill:#cf142b;fill-opacity:1;stroke:#cf142b;stroke-width:39.13803482;stroke-linecap:square;stroke-linejoin:miter;stroke-miterlimit:4;stroke-dasharray:none;stroke-dashoffset:0;stroke-opacity:1;paint-order:normal"
     d="m 909.60789,19.569017 v 58.710902 58.710901 h 98.45091 98.4511 V 78.279919 19.569017 h -98.4511 z M 909.47383,137.08999 V 397.73367 658.37924 H 464.95112 20.4284 v 97.47013 97.47203 h 444.52272 444.52271 v 283.7473 283.7495 c 83.1817,34.7164 131.49537,0 197.24307,0 V 1137.0687 853.3214 h 445.2485 445.2467 V 755.84937 658.37924 H 1551.9654 1106.7169 V 397.73367 137.08999 L 991.68692,66.635994 Z m 0.13406,1284.40311 v 36.759 36.7589 h 98.45091 98.4511 v -36.7589 -36.759 c -61.5318,-52.0746 -196.90201,0 -196.90201,0 z"
     id="path902"
     inkscape:connector-curvature="0"
     sodipodi:nodetypes="ccccccccccccccccccccccccccccccccccccccccc" />
</svg>
