<svg xmlns="http://www.w3.org/2000/svg" xmlns:xlink="http://www.w3.org/1999/xlink" viewBox="0 0 1406 1646" style="width: 100%; height: auto;">
  <defs>
    <clipPath id="b" clipPathUnits="userSpaceOnUse">
      <use xlink:href="#a"/>
    </clipPath>
  </defs>
  <g clip-path="url(#b)">
    <path id="a" fill="#d55449" d="M387.658-.342h405c-3.442 25.244-3.442 25.244-4.917 34.548l-.51 3.246c-.355 2.27-.711 4.54-1.07 6.812-.565 3.594-1.127 7.188-1.688 10.782-1.592 10.2-3.187 20.4-4.792 30.597-.99 6.28-1.97 12.564-2.948 18.847-.372 2.384-.747 4.768-1.124 7.152-.524 3.308-1.04 6.617-1.552 9.927l-.478 2.98-.416 2.72-.37 2.363c-.277 2.23-.277 2.23.865 5.026a100.909 100.909 0 0 0 6.563 5.188l2.024 1.473c25.858 18.304 57.216 24.867 88.476 20.65a136.89 136.89 0 0 0 5.937-1.311l3.809-.895c16.71-4.257 33.15-11.725 46.19-23.105l1.59-1.383a197.502 197.502 0 0 0 19.485-19.633l1.926-1.984h2l1.234 2.97 6.736 16.2c4.946 11.908 4.946 11.908 10.03 23.756.42.964.84 1.928 1.274 2.92a728.132 728.132 0 0 0 2.286 5.16c1.588 3.618 2.44 5.982 2.44 9.994-1.97 1.56-3.76 2.723-5.938 3.938l-2 1.15a481.754 481.754 0 0 1-7.062 3.912l-2.713 1.49c-16.337 8.916-33.097 16.43-50.287 23.51l-3.934 1.461-4.467 1.331-4.6 1.208-2.771.595c-3.514.75-7.03 1.493-10.546 2.23-1.5.317-2.998.636-4.496.958-20.094 4.314-39.683 6.73-60.262 6.608-3.224-.016-6.448 0-9.672.02-21.032.02-41.583-2.69-62.252-6.411-3.985 29.28-3.802 58.779 5.37 87.024a211.801 211.801 0 0 1 1.677 5.597c8.246 27.277 24.673 49.883 43.953 70.379l2.254 2.488c7.242 7.696 15.743 13.567 24.286 19.723 10.416 7.574 20.604 15.498 30.46 23.789l1.61 1.354c13.152 11.078 25.592 22.759 37.765 34.896l1.583 1.575c5.9 5.877 11.664 11.81 17.042 18.175l2.738 3.168c20.84 24.444 38.699 50.758 54.262 78.832l1.308 2.333c43.917 78.695 54.813 171.824 31.692 258.667l-.694 2.63c-11.27 41.923-32.422 80.502-59.306 114.37l-2.203 2.793c-14.026 17.482-30 34.55-47.797 48.207a955.653 955.653 0 0 0-3.25 2.625c-25.668 20.716-55.184 37.14-85.75 49.375l-3.414 1.383a677.852 677.852 0 0 1-6.586 2.617c5.078 33.856 31.147 68.135 49.203 96.098 5.733 8.885 11.278 17.883 16.797 26.902l1.988 3.246c9.31 15.212 18.43 30.52 27.38 45.948 4.208 7.234 8.484 14.429 12.752 21.628 1.733 2.93 3.46 5.863 5.185 8.798 13.284 22.596 27.118 44.736 41.82 66.443l1.219 1.8c7.549 11.468 6.737 11.87 14.618 20.54 2.792 4.975 5.493 6.015 7.56 9.975l3.478 4.622c4.684 7.765 10.504 14.406 16.446 21.208a507.3 507.3 0 0 1 5.76 6.798c4.923 5.88 10.006 11.579 15.224 17.197 2.35 2.557 4.62 5.164 6.883 7.797 2.235 2.545 3.95 4.173 6.812 6.063 2.66 1.793 3.616 2.78 5.375 5.312 6.397 9.02 15.18 16.872 23.59 23.996 2.288 1.95 4.5 3.977 6.723 6.004 4.322 3.9 8.77 7.604 13.3 11.262a334.2 334.2 0 0 1 7.322 6.2c8.79 7.59 18.142 14.386 27.565 21.163l2.108 1.519a941.255 941.255 0 0 0 21.302 14.833l1.693 1.146c2.777 1.881 5.56 3.757 8.345 5.628 15.35 10.359 15.35 10.359 17.075 18.276 1.724 13.01 2.63 28.71-3.523 40.598l-1.508 3.02c-8.624 15.944-21.29 26.11-38.328 31.953-10.507 3.028-22.71 3.734-33.164.027-2.547-1.544-4.647-3.402-6.813-5.438l-1.793-1.61a504.066 504.066 0 0 1-5.394-4.952c-1.094-1-2.19-1.996-3.285-2.992a996.738 996.738 0 0 1-6.05-5.56 301.728 301.728 0 0 0-6.665-5.948c-4.902-4.254-9.661-8.665-14.436-13.06-2.518-2.317-5.041-4.628-7.564-6.94l-3-2.75-1.5-1.375-28.5-26.125-1.5-1.375-3.002-2.752c-2.487-2.28-4.974-4.56-7.463-6.838a5262.565 5262.565 0 0 1-17.18-15.804c-4.587-4.237-9.19-8.457-13.796-12.672-2.182-2-4.355-4.01-6.524-6.024l-1.756-1.63c-1.11-1.03-2.22-2.062-3.328-3.096a453.738 453.738 0 0 0-4.451-4.06l-2.492-2.347c-4.765-3.14-10.138-1.622-15.508-.652-10.573 2.888-19.594 9.536-25.188 19.012-5.847 11.287-6.947 24.154-3.312 36.426 4.69 11.908 12.91 20.244 24.336 25.683 3.958 1.607 8.045 2.765 12.164 3.879 0 3 0 3-1.371 4.586-5.826 5.044-11.875 9.758-18.028 14.393-3.604 2.714-7.164 5.456-10.636 8.337l-1.904 1.564c-1.18.973-2.349 1.959-3.507 2.957-2.377 1.947-3.938 3.143-7.062 3.245-3.31-1.437-5.91-3.431-8.617-5.77l-1.716-1.475c-19.178-17.053-32.228-42.438-35.16-67.837-1.711-30.076 5.134-57.8 25.206-80.937 4.616-5.112 9.719-9.547 15.08-13.856 2.045-1.662 3.914-3.294 5.715-5.207-6.552-3.82-9.675-7.81-14.375-10.95-8.378-7.25-11.747-5.747-19.725-15.375-.456-2.096-8.401-10.363-8.781-12.475-5.243-7.695-7.248-12.587-12.12-18.2-.981-1.061-1.961-2.124-2.94-3.188a1045.665 1045.665 0 0 0-4.618-4.98c-3.87-4.155-7.484-8.47-11.04-12.898-2.851-3.483-5.81-6.862-8.776-10.246-5.61-6.43-10.94-13.027-16.15-19.782a945.43 945.43 0 0 0-4.815-6.152c-7.616-9.688-14.94-19.547-22.095-29.58a452.97 452.97 0 0 0-4.46-6.076c-16.442-22.18-31.456-45.655-45.513-69.41-1.64-2.771-3.296-5.534-4.951-8.297-15.521-26.091-29.225-53.174-42.641-80.391-2.281-.223-2.281-.223-4.355 2.125-.95.953-1.894 1.91-2.832 2.875l-1.504 1.523c-3.325 3.395-6.482 6.9-9.567 10.516-2.712 3.053-5.648 5.875-8.554 8.742a120.27 120.27 0 0 0-5.688 6.219c-2.547 2.97-5.214 5.75-8 8.5-2.766 2.728-5.413 5.485-7.938 8.438-3.507 4.093-7.32 7.834-11.152 11.62-2.68 2.714-5.156 5.55-7.633 8.446-2.728 3.064-5.674 5.9-8.593 8.78a116.933 116.933 0 0 0-5.621 6.153c-3.508 4.094-7.32 7.835-11.153 11.622-2.68 2.713-5.156 5.549-7.633 8.445-2.727 3.063-5.671 5.898-8.59 8.777a120.252 120.252 0 0 0-5.687 6.219c-2.547 2.97-5.214 5.75-8 8.5-3.38 3.335-6.524 6.775-9.598 10.39-3.095 3.432-6.61 6.197-9.984 9.352-4.03 3.688-8.583 8.093-10.66 10.137-3.557 3.562-5.1 3.868-9.428 8.467-5.782 4.868-3.128 2.568-8.556 8.826-3.403 2.586-8.19 9.65-9.883 14.875-10.47 18.467-12.047 45.984-6.766 66.39 8.404 27.425 25.7 49.707 51.082 63.235 9.082 4.658 18.55 7.85 28.293 10.828-4.112 5.758-8.635 10.954-13.434 16.152-2.411 2.676-4.688 5.414-6.941 8.223-3.916 4.853-8.06 9.434-12.315 13.986-2.758 2.95-5.45 5.932-8.06 9.014a553.633 553.633 0 0 1-3.25 3.625l-1.848 2.145c-1.99 2.068-3.626 3.496-6.152 4.855-23.212-2.136-47.383-24.945-61.6-41.91-19.785-24.794-29.61-53.201-29.587-84.84v-3.185c.042-7.738.774-15.457 2.187-23.065.34-2.332.676-4.665 1-7l-.987 1.458a1225.684 1225.684 0 0 1-23.534 33.502c-2.16 2.978-4.287 5.978-6.416 8.977-5.652 7.94-11.455 15.767-17.25 23.603a2608.18 2608.18 0 0 0-5.33 7.265 1119.95 1119.95 0 0 1-22.73 29.952c-1.77 2.264-3.53 4.535-5.29 6.81-6.163 7.97-12.396 15.873-18.777 23.67a666.022 666.022 0 0 0-10.248 12.888c-4.217 5.415-8.61 10.65-13.1 15.839a412.957 412.957 0 0 0-8.776 10.474c-4.617 5.684-9.416 11.2-14.226 16.722a1127.236 1127.236 0 0 0-8.016 9.32 628.107 628.107 0 0 1-15.086 17.07c-2.533 2.778-5.005 5.603-7.472 8.438-5.792 6.614-11.737 13.09-17.686 19.56a826.862 826.862 0 0 0-8.263 9.14c-9.282 10.332-18.83 20.429-28.715 30.183-1.994 2.023-3.87 4.102-5.723 6.254l-1.68 1.926a311.102 311.102 0 0 0-3.515 4.117c-7.151 7.947-15.037 8.888-25.368 9.645-20.906 1.082-40.21-5.011-56.406-18.567-12.66-11.818-23.593-29.514-24.567-47.165-.046-3.465-.075-6.929-.09-10.393l-.062-3.631c-.074-16.818 8.584-26.196 19.974-37.74 2.434-2.436 4.878-4.862 7.325-7.284 3.518-3.494 6.845-7.058 10.045-10.845 3.453-3.837 7.175-7.412 10.843-11.042 3.684-3.66 7.198-7.392 10.556-11.357 1.775-2.022 3.653-3.901 5.57-5.79 3.124-3.081 6.027-6.274 8.887-9.601 2.81-3.19 5.712-6.29 8.613-9.398 5.05-5.42 9.996-10.898 14.807-16.53l4.568-5.345 1.576-1.845a456.52 456.52 0 0 1 9.237-10.467c3.85-4.24 7.46-8.642 11.062-13.094 2.185-2.64 4.442-5.186 6.75-7.72 3.844-4.222 7.465-8.585 11.059-13.022 3.226-3.934 6.54-7.788 9.858-11.644 3.38-3.928 6.74-7.872 10.083-11.833 4.36-5.157 8.746-10.293 13.158-15.406 3.027-3.527 5.987-7.1 8.905-10.72 4.888-6.03 10.142-11.703 15.437-17.374l-5-2v-7l2.352.273c5.77.18 9.958-.34 14.382-4.175 3.633-3.51 6.982-7.263 10.266-11.098l1.945-2.215a316.174 316.174 0 0 0 3.086-3.598c3.457-3.84 7.182-7.42 10.854-11.052 3.572-3.55 6.96-7.167 10.213-11.014 3.228-3.6 6.71-6.948 10.147-10.346 2.842-2.823 5.605-5.65 8.192-8.713 3.309-3.905 6.928-7.465 10.563-11.062 18.18-17.797 14.084-10.909 22.503-22.573 1.082-1.447.28-.43 1.787-2.131 2.435-3.307 1.385-1.686 4.71-6.296l2.719-2.735c3.36-3.377 6.722-6.752 10.086-10.125 1.45-1.455 2.899-2.91 4.347-4.367l6.286-6.308 1.93-1.945a206.535 206.535 0 0 1 11.8-10.91c3.094-2.72 5.952-5.668 8.832-8.61 4.292-4.343 8.615-8.547 13.277-12.496 1.827-1.595 3.524-3.274 5.223-5.004a115.09 115.09 0 0 1 7-6.563c4.105-3.535 8.05-7.23 12-10.937 4.433-4.157 8.882-8.272 13.488-12.238 3.2-2.803 6.32-5.695 9.45-8.575 3.17-2.916 6.357-5.811 9.562-8.687 8.99-8.072 17.857-16.28 26.73-24.48 2.126-1.964 4.253-3.925 6.383-5.883a2049.332 2049.332 0 0 0 24.855-23.21 830.89 830.89 0 0 1 3.974-3.745 580.165 580.165 0 0 0 5.183-4.932l1.56-1.445c1.558-1.462 1.558-1.462 3.315-3.805-.576-4.376-3.247-7.634-5.688-11.188l-3.273-4.843-1.901-2.805c-4.345-6.431-8.645-12.893-12.95-19.351l-1.448-2.17c-8.33-12.494-16.6-25.025-24.74-37.643l-1.55-2.39c-22.496-34.751-42.578-71.16-55.45-110.61l-.718-2.17c-3.943-12.04-6.374-24.315-8.282-36.83l-.321-2.067c-7.121-53.37 11.328-102.617 41.32-145.933l1.355-1.97c7.209-10.47 14.82-20.603 22.556-30.686 5.852-7.63 11.6-15.336 17.36-23.036 1.632-2.178 3.27-4.35 4.914-6.52 30.33-40.101 53.446-81.636 66.754-130.475l.819-2.998a208.808 208.808 0 0 0 1.474-6.014c.556-2.368 1.178-4.72 1.864-7.053 3.488-13.157-.441-23.463-4.908-35.935a1946.37 1946.37 0 0 1-3.177-9.368c-.696-2.067-1.397-4.133-2.103-6.197-3.34-9.832-6.018-19.765-8.47-29.852-.954-3.824-2.317-7.282-3.39-10.7-.77-2.455-1.114-4.01-1.438-5.242-.87-3.312-.797-3.459-1.2-4.62-.409-1.479-.268-1.954-.799-3.668l-.495-2.88c-.15-1.276-.232-3.232-.333-4.015l-.192-2.787c-.68-4.256-.006-1.03-1.191-7.073-.567-2.667-.194-1.962-.979-5.237l-.944-5.12a1142.475 1142.475 0 0 0-2.517-17.817c-1.77-11.87-3.413-23.743-4.71-35.675l-.35-3.125c-2.306-22.097-2.181-44.35-2.431-66.541-.051-4.452-.106-8.905-.161-13.357-.107-8.68-.208-17.36-.307-26.04l-10.531 1.43-2.99.406c-4.183.569-8.365 1.139-12.54 1.77-16.051 2.423-31.935 2.58-48.14 2.58-3.762.002-7.525.02-11.287.04-19.392.046-38.401-.97-57.512-4.412-1.205-.215-2.41-.43-3.652-.65-23.426-4.281-45.942-10.162-68.348-18.163.652-4.086 1.963-7.53 3.625-11.313l.797-1.826c.855-1.956 1.717-3.908 2.578-5.861.59-1.346 1.178-2.691 1.766-4.038.889-2.032 1.777-4.065 2.668-6.096 2.66-6.067 5.276-12.15 7.878-18.241l1.147-2.68c.848-1.981 1.694-3.963 2.54-5.945 5.138.485 8.11 2.129 12.314 5.063 28.78 19.242 64.297 25.636 98.238 18.972 22.19-4.912 42.483-15.367 59.472-30.414 1.75-1.541 3.536-3.047 5.39-4.46 2.015-1.641 3.257-2.935 4.587-5.161.917-12.22-3.123-25.962-5.064-37.98l-1.44-9.012-.454-2.775-.415-2.611-.368-2.273c-.305-2.767-.26-5.565-.26-8.35h-153z" style="fill-rule:nonzero;stroke-width:0;stroke-dasharray:none"/>
  </g>

  <!-- Text containers for the input values to show them inside the image -->
  <text id="neckDiameter__imgValue" x="270" y="365" text-anchor="middle" font-size="60" fill="var( --light-green )"></text>
  <text id="contralateralIliacDiameter__imgValue" x="1065" y="1090" text-anchor="middle" font-size="60" fill="var( --purple-pink )"></text>
  <text id="ipsilateralIliacDiameter__imgValue" x="270" y="1090" text-anchor="middle" font-size="60" fill="var( --dark-mint )"></text>
  <text id="contralateralDistance__imgValue" x="1175" y="775" text-anchor="middle" font-size="60" fill="var( --dark-purple )"></text>
  <text id="ipsilateralDistance__imgValue" x="235" y="775" text-anchor="middle" font-size="60" fill="var( --azure )"></text>
  
  <path fill="#783F65" d="M1347 228c3.756.543 5.072 1.86 7.316 4.855 3.907 5.27 7.302 10.806 10.621 16.458l1.784 2.955 1.681 2.845 1.516 2.556C1371 260 1371 260 1371 264c-2.349 1.892-3.892 3.083-6.973 2.852-2.784-1.17-3.632-2.748-5.215-5.29l-1.542-2.433C1356 257 1356 257 1355 255v1128l6-10 2-2c3.442.353 5.069 1.046 8 3-.53 4.47-1.605 7.54-3.95 11.371l-1.821 2.99-1.917 3.076-1.857 3.065c-3.443 5.598-7.016 10.65-11.455 15.498-3.756-.543-5.072-1.86-7.316-4.855-3.907-5.27-7.302-10.806-10.621-16.457l-1.784-2.956-1.681-2.845-1.516-2.556C1326 1378 1326 1378 1326 1374c2.349-1.892 3.892-3.083 6.973-2.852 2.784 1.17 3.632 2.748 5.215 5.29l1.542 2.433C1341 1381 1341 1381 1342 1383V255l-6 10-2 2c-3.442-.353-5.069-1.046-8-3 .53-4.47 1.605-7.54 3.95-11.371l1.821-2.99 1.917-3.077 1.857-3.064c3.443-5.598 7.016-10.65 11.455-15.498Z"/>
  <path fill="#558cc1" d="M64 217.242c2.84-1.29 5.072 1.618 7.316 4.613 3.907 5.27 7.302 10.806 10.621 16.458l1.784 2.955 1.681 2.845 1.516 2.556c1.132 2.356 2.667 3.124 1.082 6.331-2.349 1.892-3.892 3.083-6.973 2.852-2.784-1.17-3.632-2.748-5.215-5.29l-1.542-2.433C73 246 73 246 72 244v1044l7-12c6 1 6 1 9 3-.386 6.214-3.442 10.652-6.625 15.813-.51.85-1.018 1.702-1.543 2.58-9.645 15.87-9.645 15.87-14.041 17.352L64 1315c-5.556-6.016-9.719-12.625-13.938-19.625l-2.11-3.39-1.98-3.274-1.804-2.96c-1.34-3.156-1.316-4.556-.168-7.751 2.898-2.099 4.284-2 8-2l7 12V244l-6 10-2 2c-3.442.773-6.592-.425-7.697-3.424.53-4.47 1.302-7.116 3.647-10.947l1.821-2.99 1.916-3.077 1.858-3.064C55.988 226.9 59.56 222.09 64 217.242Z"/>
  <path fill="#BD3F7D" d="M915 989h303v149H915V989Zm14 15v120h275v-120H929Z"/>
  <path fill="#58B037" d="M122 263h303v149H122V263Zm14 14v120h275V277H136Z"/>
  <path fill="#611E4B" d="M1026 675h302v150h-302V675Zm14 14v121h274V689h-274Z"/>
  <path fill="#50A7A0" d="M119 989h302v149H119V989Zm14 15v120h274v-120H133Z"/>
  <path fill="#3677B6" d="M82 675h303v150H82V675Zm14 14v122h275V689H96Z"/>
  <path fill="#86d055" d="m678.293 287.89 2.425-.018c1.706-.01 3.412-.016 5.117-.02 2.549-.01 5.096-.04 7.644-.072 18.808-.122 37.377 2.52 53.857 12.14 1.787 1.083-.102-.098 3.19 1.596.52.284.752.55 1.267.974.358.162.904.752 1.019.84.39.322.816.83.99 1.16.378.611.664.89.85 1.576 1.062 1.378 1.326 2.34 1.813 4.174 1.75 5.63-.511 11.8-3.082 16.852-11.29 18.294-41.32 25.432-60.723 30.191-17.422 4.003-35.013 5.17-52.851 5.125-2.69-.004-5.378.02-8.067.045-18.96.07-40.265-2.028-55.218-14.97-.917-.471-1.642-1.445-2.15-2.183-2.294-3.325-2.913-6.61-3.235-7.626l-.086-4.431.477-3.24c.404-.704-.128-.792 1.921-4.206 1.137-1.466-.043-.225 1.402-1.94.214-.255 1.158-1.46 1.511-1.88.904-1.075.056-.489 2.019-1.885l1.543-1.402c7.807-6.979 16.23-12.053 26.062-15.707a86.801 86.801 0 0 0 4.57-1.844c14.885-6.478 31.719-9.796 47.825-11.11 1.854-.153 3.709-.31 5.563-.472l2.44-.2c11.009-1.463 11.009-1.463 11.907-1.468zm-92.012 39.956c-2.094 2.478-2.573 3.573-2.898 6.762l6.184-.694-.089 5.968-4.363.637c16.53 10.84 36.531 12.035 53.33 10.948l2.358-.002c33.385-.106 76.19-5.033 101.9-28.639 2.177-2.248 2.633-3.43 3.117-6.546-.156-3.36-.156-3.36-2.75-5.75-37.95-27.448-123.667-11.992-156.79 17.316z"/>
  <path fill="#73dfcb" d="M367.79 1210.68c1.381-.336 1.513-.645 2.437-.77l1.679-.531c28.172-8.867 64.037-2.196 90.094 10.621l2.52 1.227c12.027 5.905 23.4 11.86 33.48 20.773l2.156 1.895c4.064 3.813 7.35 8.104 9.844 13.105l1.755 2.666 1.124 3.239c.366 8.372.571 11.054-5.067 17.658-5.698 4.938-10.48 7.46-17.875 9.25-3.63 1.506-4.637 1.206-5.53 1.558L480 1292l-3.531-.043c-18.26-.447-36.226-3.89-53.469-9.957l-2.085-.693c-23.815-7.929-49.39-21.274-61.25-44.557-.763-2.061-2.293-7.123-1.968-12.75l.303-2.545c.339-1.153.825-2.182 1.723-3.696.342-.761.43-.699.984-1.668 1.414-1.753.496-.761 2-2.218.609-.676 1.448-1.276 2.293-1.873zm4.215 11.117L376 1223c2.015.733 2.015.733 4 1l-1 6-10-3c0 7.545 4.096 12.547 9 18 14.048 12.839 31.299 20.56 49 27l2.242.817c5.548 1.939 11.115 3.21 16.883 4.308l2.59.512c16.185 3.157 33.238 5.102 48.41-2.735 3.154-2.154 3.872-3.888 4.688-7.59-.684-7.903-6.998-13.886-12.688-18.812-25.538-19.747-60.03-31.714-92.25-31.938l-12.538.74c-6.63 1.425-7.57 1.657-12.332 4.495z"/>
  <path fill="#ee8fcf" d="m957 1336 1.856.696 2.132 1.325c1.701.964 2.5 1.492 3.012 1.979l3.07 3.232c2.743 3.192 2.021 1.931 4.115 5.342 1.786 3.168 1.388 3.02 2.248 4.8L974 1355l.54 1.676c1.378 6.953-1.476 14.34-5.071 20.203-12.187 17.599-32.861 25.657-53.2 29.658-3.66.518-7.158.575-10.855.56h-2.127c-2.22-.01-4.441-.018-6.662-.03-1.514-.01-3.029-.01-4.543-.014-3.694-.011-7.388-.028-11.082-.049l-3.194-.193c-4.648-1.286-2.398-.672-4.624-1.571-2.232-.753-2.96-1.329-6.995-2.986-8.506-3.601-16.547-8.507-21.226-16.754-1.96-5.717-1.988-9.578-1.779-11.206-.42-2.255.312-3.64.39-5.376l.553-2.852c1.511-9.902 10.376-17.278 17.875-23.062 7.53-4.794 15.492-8.337 24-11l3.27-1.035c22.211-5.745 46.966-4.748 67.73 5.035zm-69 7-1.974.633c-12.173 4.018-24.694 10.68-31.026 22.367l-1 4 9-1 .086 5.973L855 1376c.51 4.46 1.872 6.792 5 10 14.49 11.487 34.784 11.437 52.31 9.782 4.01-.57 7.83-1.576 11.69-2.782l3.563-1.102c12.47-4.165 26.355-10.072 33.218-21.992 1.412-2.842 1.412-2.842 1.219-5.906h-12v-6l11-1c-1.391-5.564-4.41-7.752-9-11-10.524-5.57-22.41-7.554-34.188-7.438l-3.294.023c-9.29.189-17.713 1.498-26.518 4.415z"/>
  <path fill="#59aca5" d="M286 1140c.323-.401 1.217-.254 2.109-.122 3.842.568 10.094 2.643 14.735 4.177l2.812.915c1.954.638 3.907 1.279 5.86 1.922 2.972.98 5.949 1.949 8.925 2.917l5.715 1.87 2.674.872c4.842 1.6 9.603 3.877 14.256 5.963 2.66.65-2.562 6.243-5.489 9.22-3.61 3.48-7.05 6.292-10.322 10.007-4.17 2.74-5.886 6.052-8.766 8.322-2.622 2.085-4.17 4.71-7.822 7.124l-2.675 2.731L306 1198c-2.338 1.08-2.666.036-3-1-.961-1.927-.961-1.927-1.793-4.485l-.96-2.894-1.005-3.156-1.056-3.234c-.737-2.266-1.468-4.533-2.193-6.802-1.11-3.456-2.23-6.908-3.364-10.357-.714-2.202-1.426-4.404-2.137-6.607l-1.016-3.113c-1.305-4.105-3.056-9.171-3.516-12.998-.072-.603-.03-.668-.114-1.194-.103-.637-.184-1.747.154-2.16z"/>
  <path fill="#5fb33f" d="M482.637 310c.321.572.513 1.883.547 2.887l.253 3.8.247 3.762c.262 2.948.332 8.3 1.316 8.551 1.29.67 2.45.689 3.58.56l-.013 14.79c-1.01.045-2.87-.216-3.567 1.65-1.128 4.027-1.29 8.154-1.563 12.313l-.253 3.8c-.196 1.062-.1 3.002-.729 2.766-5.686-1.664-10.251-4.133-15.525-6.781l-2.905-1.45c-2.02-1.01-4.039-2.02-6.057-3.033-3.087-1.548-6.177-3.09-9.269-4.629l-5.894-2.95-2.797-1.393-2.61-1.315-2.287-1.145c-2.216-1.242-4.182-2.528-6.111-4.183-.284-.46-.9-.679 0-2 13.465-7.027 26.944-14.026 40.5-20.875l3.07-1.567 2.836-1.425 2.479-1.254c2.136-.89 2.905-1.456 4.752-.879z"/>
  <path fill="#BF4481" d="M1047 1141c1.996 2.994 2.323 4.055 2.686 7.48l.303 2.744.3 2.964.328 3.069c.227 2.148.45 4.297.67 6.446.334 3.258.683 6.514 1.033 9.77.22 2.092.439 4.184.657 6.277l.312 2.915c.65 6.465.827 12.839.711 19.335-4.684-.558-8.847-1.475-13.281-3.074l-3.532-1.266-3.687-1.348-3.775-1.369A2350.404 2350.404 0 0 1 1019 1191l-2.751-1.01a523.644 523.644 0 0 1-6.437-2.428l-3.417-1.308C1004 1185 1004 1185 1003 1182c2.526-3.586 5.346-6.365 8.668-9.21 4.348-3.774 8.533-7.701 12.707-11.665 16.769-15.848 16.769-15.848 22.625-20.125Z"/>
  <path fill="#C75D91" d="M1016 1203c5.348.535 9.358 2.467 14 5-.539 5.277-1.773 9.256-4 14-5.277-.539-9.256-1.773-14-4-.597-5.823 1.472-9.92 4-15Z"/>
  <path fill="#5eada6" d="M340.536 1183.319c3.733 2.01 6.225 4.706 8.437 8.312.313 2.5.313 2.5-1 5-2.097 2.64-4.184 5.122-7 7-2.767-.098-3.854-.875-5.957-2.672l-1.856-2.078-1.894-2.047c-1.293-2.203-1.293-2.203-1.195-4.758 1.687-4.573 5.563-8.16 10.464-8.757zm19.508 21.429c3.733 2.01 6.225 4.706 8.437 8.312.313 2.5.313 2.5-1 5-2.097 2.64-4.184 5.122-7 7-2.767-.098-3.854-.875-5.957-2.672l-1.856-2.078-1.894-2.047c-1.293-2.203-1.293-2.203-1.195-4.758 1.687-4.573 5.563-8.16 10.464-8.757z"/>
  <path fill="#C5578D" d="M1006 1230c5.277.539 9.256 1.773 14 4-.497 5.661-1.545 9.877-4 15-5.205-.964-9.6-1.877-14-5 .539-5.277 1.773-9.256 4-14Z"/>
  <path fill="#C65C90" d="M986 1283c4.836.99 9.476 1.957 14 4-.497 5.661-1.545 9.877-4 15-5.053-.632-9.296-2.135-14-4 .497-5.661 1.545-9.877 4-15Z"/>
  <path fill="#C65B90" d="M996 1257c5.414.467 9.205 1.243 14 4-.539 5.277-1.773 9.256-4 14-5.414-.467-9.205-1.243-14-4 .539-5.277 1.773-9.256 4-14Z"/>
  <path fill="#C65A8F" d="M976 1310c5.414.467 9.205 1.243 14 4-.467 5.414-1.243 9.205-4 14-5.414-.467-9.205-1.243-14-4 .539-5.277 1.773-9.256 4-14Z"/>
  <path fill="#69b84b" d="M529.583 329.829 545 330l-1 15-15.342-.043zm-27.404.413L517 330l-1 15h-15z"/>
  <path fill="#c24d87" d="M967.027 1335.8c5.348.536 9.358 2.468 14 5-.497 4.974-1.553 8.639-4 13-5.277-.538-9.256-1.772-14-4z"/>
  <path fill="#54ae32" d="M571.786 330.3 572 344h-14l.128-13.47c11.492-.69 11.097.143 13.658-.23z"/>
  <path fill="#6194C6" d="m212.941 1315.902 3.621.035 3.63.028L223 1316l1 7c-2.817 1.408-4.945.9-8.063.625l-3.285-.273C210 1323 210 1323 209 1322c-.125-2.5-.125-2.5 0-5 1-1 1-1 3.941-1.098Z"/>
  <path fill="#6193C6" d="M184 1316c2.146-.027 4.292-.046 6.438-.063l3.62-.035C197 1316 197 1316 198 1317v6l-14 1v-8Z"/>
  <path fill="#6194C6" d="m86.941 1315.902 3.621.035 3.63.028L97 1316l1 7c-2.817 1.408-4.945.9-8.063.625l-3.285-.273C84 1323 84 1323 83 1322c-.125-2.5-.125-2.5 0-5 1-1 1-1 3.941-1.098Z"/>
  <path fill="#6193C6" d="M58 1316c2.146-.027 4.292-.046 6.438-.063l3.62-.035C71 1316 71 1316 72 1317v6l-14 1v-8Z"/>
  <path fill="#568dc2" d="m486.658 1316.027 13.711-.37L501 1323h-14ZM235 1315l12 1-.396 6.658L235 1323Zm-126 0 12 1 2 7h-14z"/>
  <path fill="#548bc1" d="M539 1316h13v7h-13zm-76.523.74h13v7h-13z"/>
  <path fill="#558bc1" d="m514 1316 12.685.342-.397 6.316L514 1323Z"/>
  <path fill="#548BC1" d="M159 1316h13v7h-13v-7Z"/>
  <path fill="#558BC1" d="M134 1316h12l2 7h-14v-7Z"/>
  <path fill="#548BC1" d="M33 1316h13v7H33v-7Z"/>
  <path fill="#558BC1" d="M8 1316h12l2 7H8v-7Z"/>
  <path fill="#71355d" d="M1316.968 1416.242 1331 1416v6.274l-13.242-.153zM1292 1416l12.946.171-.288 6.514L1292 1423Zm-101.144-.171L1205 1416v7l-14.198-.315zM1166 1416h15l-.288 6.685L1166 1423Zm-100.63 0h12.731l.043 6.487-12.828-.145zm-25.37 0 14.358-.043-.288 6.3-14.07.358z"/>
  <path fill="#3d6433" d="m1348 208.726 13 .274.548 6H1348Zm-126.171.301L1235 209l-.225 5.829L1222 215c0-2.331.286-.895-.171-5.973zm-125.587-.059L1109 209l.306 6H1096Zm-126 .242L983 209l.064 6H970ZM466 208.726l13 .274.306 5.758L466 215Zm-126 0 13.968.032-.178 6L340 215Zm-126.242.484L227 209l-.179 5.758L214 215Zm-125.93-.525 14.382.315-.066 5.829L88 215Z"/>
  <path fill="#3A6230" d="M1373 209h14v6h-14v-6Zm-126 0h14v6h-14v-6Zm-126 0h14v6h-14v-6Zm-126 0h14v6h-14v-6Zm-504 0h14v6h-14v-6Zm-126 0h14v6h-14v-6Zm-126 0h14v6h-14v-6Zm-126 0h14v6h-14v-6Z"/>
  <path fill="#89C953" d="m609.188 331.938 2.73.027L614 332v6c-4.41 1.102-8.484 1.077-13 1v-6c3.015-1.005 5.042-1.103 8.188-1.063Zm25-4 2.73.027L639 328v6c-4.41 1.102-8.484 1.077-13 1v-6c3.015-1.005 5.042-1.103 8.188-1.063Z"/>
  <path fill="#EA89C6" d="M913 1363v6c-2.995.872-5.636 1.108-8.75 1.063l-2.422-.028L900 1370v-6c4.394-.857 8.526-1.09 13-1Z"/>
  <path fill="#74d6c1" d="M398 1229c4.389.665 7.981 2.188 12 4l-1 6-12.027-4.37c.423-4.288.253-3.517 1.027-5.63z"/>
  <path fill="#74d6c2" d="M493 1263c1.626.477 3.25.957 4.875 1.438l2.742.808C503 1266 503 1266 505 1267l-1 6c-1.44-.284-2.876-.577-4.313-.875l-3.03-.855c-2.204-.75-1.218-.542-4.596-1.786z"/>
  <path fill="#73D7C3" d="M469 1255c4.195.6 8.01 1.575 12 3l-1 6c-4.318-.508-8.033-1.197-12-3l1-6Z"/>
  <path fill="#73d7c2" d="M446 1246c1.651.396 3.296.817 4.938 1.25l2.777.703c2.27 1.069 2.868.869 4.314 1.94.12 2.078-1.029 3.107-2.029 6.107l-12.027-3.856.968-3.058z"/>
  <path fill="#87CC52" d="m658.688 323.938 2.449.027L663 324l1 6-13 1v-6c2.882-.96 4.699-1.106 7.688-1.063Z"/>
  <path fill="#87CB52" d="m733.188 311.938 2.73.027L738 312v6l-12 1-1-6c3.015-1.005 5.042-1.103 8.188-1.063Z"/>
  <path fill="#64234F" d="M1368 1416h13v6h-13v-6Zm-25 0h13v6h-13v-6Zm-76 0h13v6h-13v-6Zm-25 0h13v6h-13v-6Zm-25 0h13v6h-13v-6Zm-76 0h13v6h-13v-6Zm-25 0h13v6h-13v-6Zm-25 0h13v6h-13v-6Z"/>
  <path fill="#601943" d="M1015 1416h13v6h-13v-6Zm-25 0h13v6h-13v-6Zm-25 0h13v6h-13v-6Z"/>
  <path fill="#64234F" d="M864 1416h13v6h-13v-6Zm-25 0h13v6h-13v-6Z"/>
  <path fill="#EB8AC8" d="M888 1366v6c-2.995.872-5.636 1.108-8.75 1.063l-2.422-.028L875 1373v-6c1.416-.17 2.833-.335 4.25-.5l2.39-.281C884 1366 884 1366 888 1366Zm50-6v6c-2.995.872-5.636 1.108-8.75 1.063l-2.422-.028L925 1367v-6c1.416-.17 2.833-.335 4.25-.5l2.39-.281C934 1360 934 1360 938 1360Z"/>
  <path fill="#3A71AD" d="M411 1317h13v6h-13v-6Zm-25 0h13v6h-13v-6Zm-25 0h13v6h-13v-6Zm-76 0h13v6h-13v-6Z"/>
  <path fill="#2B5620" d="M1323 209h13v6h-13v-6Z"/>
  <path fill="#2A5620" d="M1298 209h13v6h-13v-6Z"/>
  <path fill="#2B5620" d="M1273 209h13v6h-13v-6Zm-76 0h13v6h-13v-6Z"/>
  <path fill="#2A5620" d="M1172 209h13v6h-13v-6Z"/>
  <path fill="#2B5620" d="M1147 209h13v6h-13v-6Zm-76 0h13v6h-13v-6Z"/>
  <path fill="#2A5620" d="M1046 209h13v6h-13v-6Z"/>
  <path fill="#2B5620" d="M1021 209h13v6h-13v-6Zm-76 0h13v6h-13v-6Z"/>
  <path fill="#2a5620" d="M920 209h13v6h-13zm-26.543.146h13v6h-13z"/>
  <path fill="#274D16" d="M819 209h13v6h-13v-6Zm-25 0h13v6h-13v-6Z"/>
  <path fill="#274D17" d="M769 209h13v6h-13v-6Zm-76 0h13v6h-13v-6Zm-25 0h13v6h-13v-6Zm-25 0h13v6h-13v-6Zm-76 0h13v6h-13v-6Z"/>
  <path fill="#2A5620" d="M542 209h13v6h-13v-6Z"/>
  <path fill="#2B5620" d="M517 209h13v6h-13v-6Zm-76 0h13v6h-13v-6Z"/>
  <path fill="#2A5620" d="M416 209h13v6h-13v-6Z"/>
  <path fill="#2B5620" d="M391 209h13v6h-13v-6Zm-76 0h13v6h-13v-6Z"/>
  <path fill="#2A5620" d="M290 209h13v6h-13v-6Z"/>
  <path fill="#2B5620" d="M265 209h13v6h-13v-6Zm-76 0h13v6h-13v-6Z"/>
  <path fill="#2A5620" d="M164 209h13v6h-13v-6Z"/>
  <path fill="#2B5620" d="M139 209h13v6h-13v-6Zm-76 0h13v6H63v-6Z"/>
  <path fill="#2A5620" d="M38 209h13v6H38v-6Z"/>
  <path fill="#2B5620" d="M13 209h13v6H13v-6Z"/>
  <path fill="#72d8c4" d="M422 1238c1.438.31 2.875.623 4.313.938l2.425.527C431 1240 431 1240 434 1241l-2 6c-1.46-.282-2.918-.576-4.375-.875l-2.46-.492c-2.058-1.062-2.044-.517-4.165-2.034.375-2.625.375-3.224 1-5.599z"/>
  <path fill="#5f1944" d="M890 1416h12v6h-11.79z"/>
  <path fill="#86CD52" d="m683.125 319.938 2.758.027L688 320v6l-12 1v-6c2.525-1.262 4.312-1.099 7.125-1.063Zm25-4 2.758.027L713 316v6l-12 1v-6c2.525-1.262 4.312-1.099 7.125-1.063Z"/>
  <path fill="#5D1844" d="M940 1416h12v6h-12v-6Z"/>
  <path fill="#5E1844" d="M915 1416h12v6h-12v-6Z"/>
  <path fill="#3672B1" d="M437 1317h12v6h-12v-6Zm-101 0h12v6h-12v-6Z"/>
  <path fill="#3672B0" d="M311 1317h12v6h-12v-6Z"/>
  <path fill="#224D15" d="M870 209h12v6h-12v-6Zm-25 0h12v6h-12v-6Zm-101 0h12v6h-12v-6Zm-25 0h12v6h-12v-6Zm-101 0h12v6h-12v-6Zm-25 0h12v6h-12v-6Z"/>
  <path fill="#548bc1" d="M259.143 1316.497h13v7h-13z"/>
</svg>
